# xmcd CD database file generated by OrangeCD 6.0
#
# Track frame offsets:
#	150
#	11652
#	20296
#	32380
#	46823
#	62192
#	75916
#	92140
#	112525
#	126337
#	136470
#	149530
#
# Disc length: 2058 seconds
#
# Revision: 0
# Processed by: cddbd v1.5.2PL0 Copyright (c) Steve Scherf et al.
# Submitted via: OrangeCD 6.0
#
DISCID=9008080c
DTITLE=Jimmy Dean - Christmas Card
DYEAR=1900
DGENRE=
TTITLE0=Blue Christmas
TTITLE1=Jingle Bells
TTITLE2=Silver Bells
TTITLE3=Have Yourself a Merry Little Christmas
TTITLE4=My Christmas Room
TTITLE5=White Christmas
TTITLE6=Yes, Ptaricia - There is a Santa Claus
TTITLE7=Christmas Medley
TTITLE8=The Cowboy's Prayer
TTITLE9=It Came Upon a Midnight Clear
TTITLE10=Silent Night
TTITLE11=Jimmy's Christmas Card
EXTD=
EXTT0=
EXTT1=
EXTT2=
EXTT3=
EXTT4=
EXTT5=
EXTT6=
EXTT7=
EXTT8=
EXTT9=
EXTT10=
EXTT11=
PLAYORDER=
